<?xml version="1.0" encoding="UTF-8"?>
<!DOCTYPE svg PUBLIC "-//W3C//DTD SVG 1.1//EN" "http://www.w3.org/Graphics/SVG/1.1/DTD/svg11.dtd">
<!-- Creator: CorelDRAW X6 -->
<svg xmlns="http://www.w3.org/2000/svg" xml:space="preserve" width="900mm" height="900mm" version="1.1" shape-rendering="geometricPrecision" text-rendering="geometricPrecision" image-rendering="optimizeQuality" fill-rule="evenodd" clip-rule="evenodd"
viewBox="0 0 90000 90000"
 xmlns:xlink="http://www.w3.org/1999/xlink">
 <g id="Layer_x0020_1">
  <metadata id="CorelCorpID_0Corel-Layer"/>
  <polygon fill="none" stroke="black" stroke-width="52.92" stroke-linecap="round" stroke-linejoin="round" points="66450,58200 66450,57225 66150,57225 66150,56475 66450,56475 66450,51225 66150,51225 66150,50475 66450,50475 66450,45225 66150,45225 66150,44475 66450,44475 66450,39225 66150,39225 66150,38475 66450,38475 66450,33225 66150,33225 66150,32475 66450,32475 66450,31500 69825,31500 69825,31200 70575,31200 70575,31500 75825,31500 75825,31200 76575,31200 76575,31500 81825,31500 81825,31200 82575,31200 82575,31500 85950,31500 85950,58200 82575,58200 82575,58500 81825,58500 81825,58200 76575,58200 76575,58500 75825,58500 75825,58200 70575,58200 70575,58500 69825,58500 69825,58200 "/>
  <g id="_956744640">
   <polygon fill="none" stroke="black" stroke-width="52.92" stroke-linecap="round" stroke-linejoin="round" points="25050,35250 44550,35250 44550,38625 44850,38625 44850,39375 44550,39375 44550,44625 44850,44625 44850,45375 44550,45375 44550,50625 44850,50625 44850,51375 44550,51375 44550,54750 25050,54750 "/>
   <rect fill="none" stroke="black" stroke-width="52.92" stroke-linecap="round" stroke-linejoin="round" transform="matrix(2.0854E-014 -0.787402 1.9685 5.21349E-014 34425 36150)" width="381" height="381"/>
   <rect fill="none" stroke="black" stroke-width="52.92" stroke-linecap="round" stroke-linejoin="round" transform="matrix(2.0854E-014 -0.787402 1.9685 5.21349E-014 28425 36150)" width="381" height="381"/>
   <rect fill="none" stroke="black" stroke-width="52.92" stroke-linecap="round" stroke-linejoin="round" transform="matrix(2.0854E-014 -0.787402 1.9685 5.21349E-014 40425 36150)" width="381" height="381"/>
  </g>
  <g id="_1039068032">
   <polygon fill="none" stroke="black" stroke-width="52.92" stroke-linecap="round" stroke-linejoin="round" points="45300,59250 45300,30750 64800,30750 64800,59250 "/>
   <rect fill="none" stroke="black" stroke-width="52.92" stroke-linecap="round" stroke-linejoin="round" transform="matrix(2.0854E-014 -0.787402 1.9685 5.21349E-014 54675 58650)" width="381" height="381"/>
   <rect fill="none" stroke="black" stroke-width="52.92" stroke-linecap="round" stroke-linejoin="round" transform="matrix(2.0854E-014 -0.787402 1.9685 5.21349E-014 48675 58650)" width="381" height="381"/>
   <rect fill="none" stroke="black" stroke-width="52.92" stroke-linecap="round" stroke-linejoin="round" transform="matrix(2.0854E-014 -0.787402 1.9685 5.21349E-014 60675 58650)" width="381" height="381"/>
   <rect fill="none" stroke="black" stroke-width="52.92" stroke-linecap="round" stroke-linejoin="round" transform="matrix(2.0854E-014 -0.787402 1.9685 5.21349E-014 54675 31650)" width="381" height="381"/>
   <rect fill="none" stroke="black" stroke-width="52.92" stroke-linecap="round" stroke-linejoin="round" transform="matrix(2.0854E-014 -0.787402 1.9685 5.21349E-014 48675 31650)" width="381" height="381"/>
   <rect fill="none" stroke="black" stroke-width="52.92" stroke-linecap="round" stroke-linejoin="round" transform="matrix(2.0854E-014 -0.787402 1.9685 5.21349E-014 60675 31650)" width="381" height="381"/>
   <rect fill="none" stroke="black" stroke-width="52.92" stroke-linecap="round" stroke-linejoin="round" x="45900" y="44625" width="300" height="750"/>
   <rect fill="none" stroke="black" stroke-width="52.92" stroke-linecap="round" stroke-linejoin="round" x="45900" y="50625" width="300" height="750"/>
   <rect fill="none" stroke="black" stroke-width="52.92" stroke-linecap="round" stroke-linejoin="round" x="45900" y="38625" width="300" height="750"/>
   <rect fill="none" stroke="black" stroke-width="52.92" stroke-linecap="round" stroke-linejoin="round" x="45900" y="56625" width="300" height="750"/>
   <rect fill="none" stroke="black" stroke-width="52.92" stroke-linecap="round" stroke-linejoin="round" x="45900" y="32625" width="300" height="750"/>
   <polygon fill="none" stroke="black" stroke-width="52.92" stroke-linecap="round" stroke-linejoin="round" points="62800,58350 62800,31650 63800,31650 63800,58350 "/>
   <polygon fill="none" stroke="black" stroke-width="52.92" stroke-linecap="round" stroke-linejoin="round" points="59800,58350 59800,31650 60800,31650 60800,58350 "/>
   <polygon fill="none" stroke="black" stroke-width="52.92" stroke-linecap="round" stroke-linejoin="round" points="56800,58350 56800,31650 57800,31650 57800,58350 "/>
   <polygon fill="none" stroke="black" stroke-width="52.92" stroke-linecap="round" stroke-linejoin="round" points="53800,58350 53800,31650 54800,31650 54800,58350 "/>
   <polygon fill="none" stroke="black" stroke-width="52.92" stroke-linecap="round" stroke-linejoin="round" points="50800,58350 50800,31650 51800,31650 51800,58350 "/>
   <polygon fill="none" stroke="black" stroke-width="52.92" stroke-linecap="round" stroke-linejoin="round" points="47800,58350 47800,31650 48800,31650 48800,58350 "/>
  </g>
  <g id="_1039074144">
   <polygon fill="none" stroke="black" stroke-width="52.92" stroke-linecap="round" stroke-linejoin="round" points="4050,35250 23550,35250 23550,38625 23850,38625 23850,39375 23550,39375 23550,44625 23850,44625 23850,45375 23550,45375 23550,50625 23850,50625 23850,51375 23550,51375 23550,54750 4050,54750 "/>
   <rect fill="none" stroke="black" stroke-width="52.92" stroke-linecap="round" stroke-linejoin="round" transform="matrix(2.0854E-014 -0.787402 1.9685 5.21349E-014 13425 36150)" width="381" height="381"/>
   <rect fill="none" stroke="black" stroke-width="52.92" stroke-linecap="round" stroke-linejoin="round" transform="matrix(2.0854E-014 -0.787402 1.9685 5.21349E-014 7425 36150)" width="381" height="381"/>
   <rect fill="none" stroke="black" stroke-width="52.92" stroke-linecap="round" stroke-linejoin="round" transform="matrix(2.0854E-014 -0.787402 1.9685 5.21349E-014 19425 36150)" width="381" height="381"/>
  </g>
 </g>
</svg>
